<svg t="1587645878339" class="icon" viewBox="0 0 1365 1024" version="1.1" xmlns="http://www.w3.org/2000/svg" p-id="14741" width="200" height="200"><path d="M1024 1024H384v-2.901333A341.077333 341.077333 0 0 1 172.714667 386.133333a426.666667 426.666667 0 0 1 842.794666-44.245333c2.858667 0 5.632-0.554667 8.533334-0.554667A341.333333 341.333333 0 0 1 1024 1024z m0-512h-8.533333a264.533333 264.533333 0 0 1-82.432 0H853.333333v-85.333333a256 256 0 0 0-512 0v85.333333a216.405333 216.405333 0 0 0-85.333333 24.064L229.589333 554.666667a167.893333 167.893333 0 0 0-16.256 16.341333 57.898667 57.898667 0 0 0-10.624 13.312A167.936 167.936 0 0 0 170.666667 682.666667a177.450667 177.450667 0 0 0 128 170.666666h725.333333a170.666667 170.666667 0 0 0 0-341.333333z" p-id="14742"></path></svg>
